<?xml version="1.0" encoding="utf-8"?>
<!-- Generator: Adobe Illustrator 16.0.0, SVG Export Plug-In . SVG Version: 6.00 Build 0)  -->
<!DOCTYPE svg PUBLIC "-//W3C//DTD SVG 1.1//EN" "http://www.w3.org/Graphics/SVG/1.1/DTD/svg11.dtd">
<svg version="1.1" id="Capa_1" xmlns="http://www.w3.org/2000/svg" xmlns:xlink="http://www.w3.org/1999/xlink" x="0px" y="0px"
	 width="512px" height="512px" viewBox="0 0 512 512" enable-background="new 0 0 512 512" xml:space="preserve">
<ellipse transform="matrix(-0.7599 0.65 -0.65 -0.7599 522.9471 488.7235)" fill="#FFFFFF" cx="171.219" cy="340.936" rx="169.623" ry="144.951"/>
<rect x="103.155" y="212.518" transform="matrix(0.7358 0.6773 -0.6773 0.7358 244.8746 -96.7179)" fill="#FFFFFF" width="286.447" height="105.845"/>
<g>
	<path fill="#D80027" d="M467.551,44.413C438.911,15.773,400.831,0,360.327,0c-40.505,0-78.585,15.773-107.226,44.413
		L44.377,253.137c-59.123,59.126-59.123,155.326,0.001,214.451C73.02,496.229,111.1,512,151.603,512s78.584-15.771,107.225-44.412
		l208.725-208.724c28.642-28.643,44.414-66.722,44.414-107.226C511.966,111.133,496.192,73.054,467.551,44.413 M244.672,453.433
		c-24.859,24.861-57.914,38.553-93.071,38.553c-35.157,0-68.212-13.69-93.072-38.553c-51.319-51.319-51.319-134.821,0-186.144
		l104.362-104.36c0,0,108.761-107.87,110.37-109.114c1.628-1.22,3.318-2.357,4.966-3.532c6.689-4.572,13.646-8.632,20.828-11.957
		c14.342-6.699,29.456-10.517,43.896-11.589c7.229-0.463,14.272-0.328,21.005,0.381c1.679,0.218,3.339,0.434,4.987,0.648
		c1.64,0.253,3.253,0.583,4.854,0.868c1.603,0.266,3.167,0.643,4.714,1.021c1.541,0.389,3.086,0.691,4.568,1.172
		c1.486,0.452,2.959,0.899,4.413,1.34c1.453,0.434,2.847,1.002,4.243,1.488c2.804,0.952,5.441,2.139,8.02,3.24
		c1.294,0.544,2.516,1.208,3.744,1.792c1.215,0.616,2.439,1.163,3.598,1.81c1.154,0.642,2.293,1.272,3.414,1.894
		c0.559,0.313,1.109,0.625,1.659,0.933c0.533,0.334,1.066,0.667,1.59,0.996c8.444,5.196,15.243,10.393,20.644,14.846
		c6.921,5.708,10.363,8.876,12.802,11.682c1.22,1.404,3.323,3.97,2.667,4.641c-0.551,0.562,19.567-7.735,16.629-9.989
		c-2.909-2.263-12.292-21.295-18-25c-5.78-3.601-13.438-3.335-22-7c3.591-25.241-35.959-14.18-47-16
		c-5.53-0.822-15.354,4.254-21.325,4.267c-1.565-31.089-9.461-2.239-15.675-1.267c7.749-25.425-24.923-4.427-37,2
		c-6.008,3.271-21.605,23.551-27.273,27.782C276.833,51.37,165.066,149.811,159.5,155.5c-1.98,2.024,18.336,22.509,20.736,24.909
		c38.896,38.896,147.438,147.321,166.062,165.927c1.779,1.777,2.185,3.275,0.347,5.123
		C314.066,384.225,244.672,453.433,244.672,453.433z"/>
</g>
</svg>
